<?xml version="1.0" encoding="UTF-8"?>
<svg id="dbstack" xmlns="http://www.w3.org/2000/svg" viewBox="0 0 468.82 153.96">
    <defs>
        <style>
            .cls-1, .cls-2 {
            fill: #068341;
            }

            .cls-3 {
            fill: none;
            }

            .cls-3, .cls-4, .cls-2 {
            stroke: #fff;
            stroke-miterlimit: 10;
            }

            .cls-4 {
            font-family: Heavitas, Heavitas;
            font-size: 91.1px;
            }

            .cls-4, .cls-5 {
            fill: #0c1f39;
            }

            .cls-5 {
            font-family: DejaVuSans, 'DejaVu Sans';
            font-size: 115.99px;
            }

            .cls-6 {
            fill: #0d1f38;
            font-family: CascadiaMono-Roman, 'Cascadia Mono';
            font-size: 36px;
            font-variation-settings: 'wght' 400;
            }
        </style>
    </defs>
    <g>
        <path class="cls-2" d="M46.48,77.84v20.04c0,8.39,17.36,15.19,38.78,15.19s38.78-6.8,38.78-15.19v-20.04H46.48Z"/>
        <path class="cls-2" d="M46.48,55.04v20.04c0,8.39,17.36,15.19,38.78,15.19s38.78-6.8,38.78-15.19v-20.04H46.48Z"/>
        <path class="cls-2" d="M46.48,33.41v20.04c0,8.39,17.36,15.19,38.78,15.19s38.78-6.8,38.78-15.19v-20.04H46.48Z"/>
        <g>
            <ellipse class="cls-1" cx="85.26" cy="33.41" rx="38.78" ry="15.19"/>
            <ellipse class="cls-3" cx="85.26" cy="33.41" rx="38.78" ry="15.19"/>
        </g>
    </g>
    <g id="v_SYMBOL" data-name="v SYMBOL">
        <text class="cls-5" transform="translate(0 100.27) scale(.92 1)">
            <tspan x="0" y="0">{ }</tspan>
        </text>
        <text class="cls-4" transform="translate(55.14 102.99) scale(.83 1)">
            <tspan x="0" y="0">V</tspan>
        </text>
        <text class="cls-6" transform="translate(176.26 79.1) scale(.92 1)">
            <tspan x="0" y="0">Viewton Library</tspan>
        </text>
    </g>
</svg>